<?xml version="1.0" encoding="utf-8"?>
<!-- Generator: Adobe Illustrator 22.0.1, SVG Export Plug-In . SVG Version: 6.00 Build 0)  -->
<svg version="1.1" id="Layer_1" xmlns="http://www.w3.org/2000/svg" xmlns:xlink="http://www.w3.org/1999/xlink" x="0px" y="0px"
	 viewBox="0 0 405 538" style="enable-background:new 0 0 405 538;" xml:space="preserve">
<style type="text/css">
	.st0{fill:#FF8609;}
	.st1{fill:#FFC589;}
	.st2{fill:#FFFFFF;}
	.st3{fill:#73818D;}
	.st4{fill:none;}
	.st5{fill:#FF0909;}
</style>
<g>
	<g>
		<path class="st0" d="M14.8,322.7l2.7-10.1l0.1-0.3c0.6-2.3,3-3.7,5.3-3.1l2.2,0.6L70.5,322v-14c91,3.6,182.2,3.6,273.2,0v14
			l45.4-12.2l2.2-0.6c2.3-0.6,4.7,0.7,5.3,3.1l0.1,0.3l2.7,10.1c0.6,2.3-0.7,4.7-3,5.3l-52.1,14c-0.2,0.1-0.4,0.1-0.6,0.1v18.1
			c0,95.7,15.8,111.3-136.6,111.3S70.6,456,70.6,360.3v-18.1c-0.2,0-0.4-0.1-0.6-0.1l-52.1-14C15.6,327.4,14.2,325.1,14.8,322.7z"/>
		<path class="st0" d="M91.4,267.4c37.7-8.2,81-9.1,122.9-6.5c-0.2-6.1-0.5-12.3-0.7-18.4c-6.3-2.5-10.2-5.9-9.8-9.4
			c0.5-5.9,13.3-9.7,28.5-8.3c15.2,1.3,27.2,7.2,26.7,13.2c-0.3,3.4-4.7,6.1-11.3,7.5c-1.3,6-2.6,12-3.9,18
			c41.7,4.8,84.1,13.2,119.9,27.8c7.1,2.9,3,12.3-1.1,12.1c-45.5-2.2-90.9-5.2-136.3-9.2s-90.7-8.8-135.8-14.6
			C86.3,279,83.9,269,91.4,267.4z"/>
		<path class="st1" d="M259.5,459.5c37.8-1.8,57-6.5,65.4-15.6c10.7-11.6,7.9-27.4,7.9-124.4c-24.2,0.9-48.8,1.5-73.2,1.9
			L259.5,459.5L259.5,459.5z"/>
		<path class="st1" d="M123.2,320.7c-14-0.3-27.9-0.8-41.6-1.3c0,92.8-2.4,108.3,5.3,121c3.6,6,11,12.4,36.3,16.2L123.2,320.7
			L123.2,320.7z"/>
		<path class="st1" d="M266.2,289.1c27.5,2.1,55.1,3.8,82.6,5.3c-26.8-9.6-59.3-16.8-96.7-21.6L266.2,289.1z"/>
		<path class="st1" d="M247.8,236.7c-5.9-10.2-25.4-11.8-32.9-2.9l-0.1,0.1c-0.1,0.1-0.1,0.3,0,0.4c0.1,0.1,0.1,0.1,0.2,0.1
			c9-2.2,23.9-1,32.6,2.8c0.1,0.1,0.3,0,0.3-0.1s0-0.2,0-0.2L247.8,236.7z"/>
		<path class="st2" d="M90.3,328.2c6.8,0.6,15.2,1.5,21.9,3.3c-8.4,2.9-11.8,3.5-13.3,5.3c-2.5,3,0.1,9.3-6.6,34.9
			C89.5,358.6,89.5,341.6,90.3,328.2z"/>
		<path class="st2" d="M270.6,448.1c64,4.3,55.2-15.9,51.6-96.9c0-0.2-0.1-0.3-0.3-0.3c-0.1,0-0.2,0.1-0.3,0.3
			c-9,66.8,7.4,83.8-51.1,96.3c-0.2,0-0.2,0.2-0.2,0.3C270.3,448,270.4,448.1,270.6,448.1z"/>
	</g>
	<g>
		<path class="st3" d="M33.8,106.1c0,0.1-0.1,0.2-0.1,0.3c-0.1,0.2-0.3,0.4-0.5,0.6c-0.4,0.3-0.8,0.6-1.2,0.8
			c-0.9,0.4-1.9,0.8-2.8,1.2c-1,0.5-2,0.9-3,1.4c0.1-0.5,0.3-1.1,0.3-1.6c0-0.3,0-0.6,0-0.9s-0.1-0.6-0.3-0.9
			c0.1,0.3,0.1,0.6,0.1,0.9s-0.1,0.6-0.2,0.9c-0.2,0.6-0.4,1.1-0.7,1.6c-0.1,0.2-0.3,0.5-0.4,0.7c-0.4,0.2-0.8,0.4-1.2,0.7
			c-1.8,1-3.5,2.1-5.1,3.3c-0.3,0.2-0.6,0.4-0.8,0.6c-1.8-3-5.1-7.7-7.7-6.3c-0.7,0.4-1,1.2-0.6,1.9c0.3,0.6,1,0.9,1.6,0.7
			c0.6,0.3,2.3,1.9,4.2,5.1c-0.3,0-0.6,0-0.9,0c-1.2,0-2.4,0.2-3.6,0.5c-1.2,0.3-2.3,0.8-3.3,1.5s-1.9,1.5-2.5,2.4
			c0.8-0.9,1.7-1.6,2.7-2.1s2.1-0.9,3.2-1.1c1.1-0.2,2.3-0.2,3.4-0.1c0.1,0,0.2,0,0.3,0c-9.3,5.3-13,16.6-8.2,25.7
			c4.8,9.3,16.7,12.7,26.5,7.6c9.8-5.1,13.8-16.8,8.9-26c-3.5-6.7-10.6-10.3-18-9.9c0.3-0.4,0.5-0.8,0.8-1.3c0.5-0.9,1-1.8,1.3-2.8
			c1.1-0.7,2.3-1.3,3.5-2c0.9-0.5,1.8-0.9,2.7-1.4c0.5-0.2,0.9-0.5,1.2-0.9c0.2-0.2,0.3-0.4,0.5-0.6
			C33.7,106.4,33.8,106.3,33.8,106.1c0-0.1,0-0.3,0-0.4C33.8,105.9,33.8,106,33.8,106.1z M18.5,150.6c-2.2-0.7-4.2-1.9-5.9-3.4
			s-3.1-3.3-4.2-5.3c-0.5-1-1-2-1.3-3.1c-0.2-0.5-0.3-1.1-0.4-1.6c-0.1-0.6-0.1-1.1-0.1-1.7c0.7,1.9,3.5,6.8,7.5,10.1
			c3.3,2.7,7,4.4,11.1,5.2C23,151.4,20.6,151.2,18.5,150.6z M23.3,113.3c-0.8,0.9-1.6,1.7-2.5,2.3c-0.1,0.1-0.3,0.2-0.4,0.3
			c-0.5,0.1-1,0.2-1.5,0.4c0.2-0.1,0.3-0.3,0.5-0.4c1.4-1.2,3-2.3,4.5-3.3C23.7,112.8,23.5,113,23.3,113.3z"/>
		<path class="st3" d="M66,119.1c0.4,0.6-0.5,2-2,3.2c-1.6,1.2-3.2,1.7-3.7,1.1c-0.4-0.6,0.5-2,2.1-3.2
			C63.9,119,65.6,118.5,66,119.1z M60.2,127.3c-1.1,0.8-1.8,1.8-1.5,2.1s1.4,0,2.5-0.9c1.1-0.8,1.8-1.8,1.5-2.1
			C62.4,126.1,61.3,126.5,60.2,127.3z M92.6,114.1c1.3,1.7,4.3,1.5,4.3,1.5c0.4,0,1,0.2,1.2,0.6l7.4,9.9c0.3,0.3,0.3,0.9,0,1.2
			l-33.4,41.6c-0.3,0.3-0.7,0.4-1,0.1l-8.5-8.2c-0.3-0.3-0.5-0.9-0.4-1.3c0,0,0.8-2.9-0.7-4.9c-1.6-2.1-4.2-2.9-5.7-1.8
			c-0.3,0.2-0.3,0.2-0.3,0.2c-0.2,0.3-0.7,0.3-1,0l-6.6-6.4c-0.3-0.3-0.4-0.9-0.3-1.3l12-30.7c0.2-0.4,0.6-0.8,1-1l9.2-2.9
			c0.4-0.1,0.8-0.2,0.8-0.2l0,0c1.3,1.7,3.6,2.1,5.2,0.9c1-0.7,1.3-2.4,1.3-2.4c0.1-0.4,0.5-0.9,0.9-1l10.5-3.3c0.4-0.1,1,0,1.2,0.4
			l2.3,3.1c0.3,0.3,0.3,1,0.2,1.4C92.4,109.6,91.3,112.4,92.6,114.1z M65.5,148c1-0.7,0.7-2.8-0.7-4.6c-1.3-1.8-3.2-2.7-4.2-1.9
			c-1,0.7-0.7,2.8,0.7,4.6C62.6,147.8,64.5,148.7,65.5,148z M76.4,155.3c-0.5-0.7-1.6-0.8-2.4-0.3c-0.8,0.6-0.9,1.6-0.4,2.3
			s1.6,0.9,2.4,0.3C76.8,157.1,77,156,76.4,155.3z M77.6,142.5c-1.4-1.9-3.5-2.8-4.6-1.9c-1.1,0.8,1,2.3,0.6,4.9
			c-0.4,2.3,3.5,2.8,4.6,1.9C79.3,146.6,79,144.4,77.6,142.5z M83.6,128.2c-3.6-0.3-5.1-3.9-6.8-2.6s-1.4,4.5,0.6,7.2
			s5.1,3.9,6.8,2.6C86,134.2,87,128.5,83.6,128.2z M97,124.3c-1.5-1.9-3.5-2.9-4.5-2.2c-1,0.8-1.5,4.1,0.8,4.9
			c1.8,0.6,3.5,2.9,4.5,2.2C98.8,128.5,98.4,126.3,97,124.3z M50.2,143.3c-0.2,0.4,0,0.5,0.3,0.2L87.4,107c0.3-0.3,0.2-0.4-0.2-0.3
			l-7.4,2.6c-0.4,0.1-0.9,0.6-1,1c0,0-0.6,1.7-1.7,2.5c-1.2,0.9-2.6,1.2-4,0.9c-1-0.2-2.1-0.9-2.1-0.9c-0.4-0.2-1-0.3-1.4-0.2
			l-7.5,2.4c-0.4,0.1-0.9,0.6-1,1L50.2,143.3z"/>
		<path class="st3" d="M61.7,47c-2.8,3.8-6.6,6-11.3,6.5c-1.1,0.1-2.1,0-3.1-0.3c0,0,0,0,0-0.1c0-1.6,0.2-3.2,0.4-5.1
			c0.1-0.6,0.2-1.2,0.3-1.8c1.4,0.1,2.8,0.1,4.1-0.2c1.6-0.3,3.1-0.8,4.6-1.5c1.4-0.7,2.8-1.6,4-2.7c0.9-0.8,1.8-1.7,2.4-2.6
			c0.2-0.3,0.5-0.7,0.7-1c0.1-0.2,0-0.4-0.1-0.5c-0.2-0.1-0.4-0.1-0.5,0.1l-0.3,0.4c-0.8,1-1.7,2-2.9,2.9s-2.5,1.7-3.9,2.3
			s-2.9,1-4.3,1.2c-1.2,0.1-2.4,0.1-3.6,0c0.1-0.5,0.2-1,0.4-1.5c0.8-3.2,1.9-6.5,3.2-9.8c0.2-0.5,0.4-1.1,0.7-1.6
			c1.2,0.2,2.5,0.2,3.7,0.1c1.3-0.1,2.5-0.5,3.6-0.9c1.2-0.5,2.3-1.1,3.2-1.9c0.7-0.6,1.3-1.2,1.8-1.9c0.2-0.3,0.4-0.6,0.6-0.9
			c0.1-0.2,0-0.4-0.1-0.5c-0.2-0.1-0.4-0.1-0.5,0.1L64.6,26c-0.6,0.8-1.4,1.6-2.2,2.2c-0.9,0.6-1.9,1.1-3,1.5
			c-1.1,0.3-2.2,0.5-3.3,0.6c-1,0-1.9,0-2.8-0.2c1-2.1,2-4.2,3.1-6.1c0.9-1.6,1.8-3.1,2.7-4.4c0.3-0.5,0.7-0.9,1-1.4
			c0.8-1,1.5-1.9,2.2-2.7l0,0c0.1-0.1,0.1-0.3,0-0.5c-0.1-0.1-0.4-0.1-0.5,0c-1.1,1.1-2.2,2.3-3.4,4c-1,1.4-2,2.9-3,4.5
			c-0.8,1.3-1.5,2.5-2.2,3.9c-0.3-0.1-0.6-0.4-0.9-0.7c-0.3-0.4-0.5-0.8-0.6-1.4c-0.1-0.5-0.3-1-0.3-1.6c-0.1-0.5-0.1-1.1-0.1-1.6
			c0-0.2-0.2-0.3-0.3-0.3s-0.2,0.1-0.3,0.1c0,0-0.1,0.1-0.1,0.2c0,0.6-0.1,1.1-0.1,1.7s0.1,1.2,0.2,1.8c0.1,0.7,0.3,1.3,0.6,1.8
			c0.2,0.3,0.4,0.6,0.6,0.8c0.2,0.2,0.4,0.4,0.7,0.5c-0.7,1.3-1.3,2.7-2,4.1c-0.8,1.8-1.6,3.7-2.2,5.5c-0.4-0.2-0.9-0.6-1.3-1.1
			c-0.5-0.6-0.9-1.4-1.3-2.3c-0.6-1.6-1-3.4-1-5.4c0-0.2-0.2-0.3-0.3-0.3s-0.2,0.1-0.3,0.1c0,0-0.1,0.1-0.1,0.2
			c-0.2,2.1,0,4,0.5,5.8c0.3,1.1,0.7,2,1.3,2.8c0.3,0.5,0.7,0.9,1.1,1.2c0.2,0.2,0.4,0.4,0.7,0.5c0.1,0,0.1,0.1,0.2,0.1
			c-0.3,0.9-0.6,1.9-0.9,2.8c-0.5,1.8-0.9,3.5-1.3,5.2l-0.1,0.3c-0.3-0.2-0.6-0.6-0.8-0.9c-0.5-0.7-1-1.6-1.4-2.5s-0.6-1.9-0.8-2.9
			s-0.3-2-0.3-3c0-0.2-0.2-0.3-0.3-0.3s-0.2,0.1-0.3,0.1c0,0-0.1,0.1-0.1,0.2c-0.1,1-0.1,2.1,0.1,3.2c0.1,1.1,0.3,2.1,0.6,3.1
			c0.4,1.1,0.8,2.1,1.3,3c0.3,0.5,0.7,1,1.1,1.4c0.2,0.2,0.4,0.4,0.7,0.6l0,0c-0.1,0.7-0.2,1.4-0.2,2.1c-0.6-0.5-1.1-1-1.5-1.7
			c-5.7-9.4-2-18,2.2-23.7c5.6-7.6,13.9-12.4,17.9-13.1C68.3,25.6,67.5,39.3,61.7,47L61.7,47z"/>
		<path class="st3" d="M115,240.5c1.6-1.2,1.5-3.1,2.6-4.7c1-1.3,1.4-2.9,1.2-4.5c-0.8-5.4-5.7-10.7-12.8-13.1
			c-9.1-3.1-18.3-0.2-20.6,6.4c-2.3,6.6,3.3,14.5,12.4,17.6C104.4,244.4,110.9,243.6,115,240.5z M93.9,219.7c1.9-0.7,3.9-1,5.8-0.9
			c2,0.1,3.9,0.5,5.7,1.2c1.8,0.7,3.5,1.6,5,2.8c-1.9-0.4-3.7-0.9-5.5-1.3c-1.8-0.4-3.6-0.6-5.4-0.7c-1.8-0.1-3.6,0.1-5.3,0.4
			c-1.8,0.3-3.5,0.8-5.4,1.4C90.3,221.4,92,220.4,93.9,219.7z"/>
		<path class="st3" d="M34.2,95.4c0,0,11.2,6.5,16.3,14.3c2.2-0.7,5.9-6,7.6-7.8c1.7-1.8,5.2-4,5.9-6.4c-4.4-2.9-15-15.7-15-15.7
			c6.6-0.9,8.7-9.8,2.7-15.5c-7.8-7.5-19.3-3.7-28.4,5.8c-9.1,9.5-12.4,21.1-4.6,28.6C24.8,104.5,33.6,102,34.2,95.4z M39,76.8
			c-0.7-1.1,1.6-3.9,3.1-4.9c5.5-3.6,8.1,2.4,8.5,3.3c0.8,2.1-2.1-2.6-7.4,0.9C41,77.6,39.5,77.6,39,76.8z M26,88.8
			c0.9-1.6,3.6-4,4.8-3.4c0.8,0.5,0.9,2-0.4,4.3c-3.3,5.5,1.5,8.2-0.6,7.4C28.7,96.8,22.6,94.4,26,88.8z"/>
		<path class="st3" d="M64.6,176.1c1,0.2,2.5,0.8,4.1,1.9c1.6,1.1,3.3,2.7,4.7,4.8s2.6,4.7,3.2,7.6c0.3,1.5,0.3,2.8,0.3,3.9
			c0,0.5,0.1,1.6,0.2,1.7c1.8,1.4,3.3,3.4,3.9,6c-0.4,0.1-0.9,0.2-1.4,0.2c-1.9,0.1-4.1-0.4-6.3-1.4c-3.5-1.6-5.6-4-6.1-5.7
			c1.5-0.8,3-1.2,4.5-1.1c0.7,0,1.4,0.1,2.1,0.4c0.2,0,0.4-2,0.2-3.4c-0.5-2.5-1.5-4.9-2.6-6.8c-1.2-1.9-2.5-3.5-3.8-4.7
			s-2.5-1.9-3.3-2.5c-0.8-0.5-1.3-0.8-1.3-1C62.9,175.9,63.5,175.9,64.6,176.1z M65.5,196.2c-15.2,11.5-24.9,64.8-4.6,82.3
			c3.4,2.9,9.8,5.3,14.4,9.6c0.7,0.6,1.5,0.1,1.2-0.9c-3-9.6-12.3-21.3-12.2-29.6c0.2-11.3,3.5-23.2,6.3-29
			c3.2-6.8,7.2-10.6,10-19.4c0.6-1.9,0.8-3.6,0.7-5.2c-0.5,0.1-1,0.2-1.6,0.2c-2.2,0.1-4.7-0.5-7.1-1.6
			C69,201,66.5,198.6,65.5,196.2z"/>
		<path class="st3" d="M114,209.4c-4.4-1.2-6.4-3.4-11.2-7.5c-4-3.5-8.7-8-13.5-15.3c-1.5-2.3-1.9-4-1.4-5.7
			c0.9-2.8,4.7-7.3,13.7-8.4h0.2c0.1,0,0.2-0.1,0.3-0.1c6.5-3.6,6.9-2.8,8-3.1s1.3-7.8,9.1-6.9c1.7,0.2,3.1,0.8,4.1,1.7
			c4.1,3.6,3.2,8.4,7.3,16.5c3.5,6.9,3.1,14.4,0.3,20.1C127.7,207.2,121.2,211.3,114,209.4z M101.7,203.4
			c-5-3.5-16.3-14.9-18.1-20.4c-0.8-2.5-1.1-5.9,1.9-8.8c1.6-1.5,6.5-3.3,8.4-1.8c-4.6,2.4-7,5.7-7.7,7.9c-0.9,2.6,0.9,6.4,3.6,10.2
			C93.4,195.7,98.8,200.9,101.7,203.4L101.7,203.4z M101.3,170.4c-1.7,0.2-3.4,0.5-5.1,1l-0.4,0.1c0.1-0.1,0.1-0.2,0.2-0.2
			c0.2-0.3,0.4-0.6,0.5-0.9c0.9-1.5,1.7-0.8,2.1-1.7c0.3-0.7-0.3-7.3,0-10c0.2-1.9-1.2-12.4,4.5-14.9c3.8-1.7,4.7-0.1,8.5,0.2h0.2
			c0.7-0.1,1,0,1,0.1c-0.4,1.1-1,2.3-1.5,3c-0.4,0.5-0.7,0.6-0.7,0.7c0,0-0.2-0.4-0.3-1c-0.3-1.8-4-1.4-5.5-0.6
			c-2.6,1.4-3.2,6.3-3.1,7.6c0.3,4.3,0.8,9.9,4.6,11.2l0.3,0.1c0.1,0,0.1,0,0.2,0l0.4-0.2c0.5-0.2,0.9-0.4,1.4-0.5
			c0.3-0.1,0.6-0.1,0.8-0.2c0.1,0,0.5,0,0.9,0c-0.6,0.9-1.1,1.8-1.5,2.9l0,0c-2.1,0.3-4.5,1.5-6.3,2.5L101.3,170.4z M111.5,163.1
			c-0.2,0-0.5-0.1-0.9-0.1c-0.2,0-1-0.1-1.4,0c2.9-2.9,6.4-4.3,10.2-2.6c0.1,0.1,0.2,0.1,0.3,0.2c-0.1,0-0.2,0-0.4,0
			C116.3,160.1,113.6,160.9,111.5,163.1z"/>
	</g>
</g>
<g>
	<rect x="32.7" y="483" class="st4" width="346.6" height="58"/>
	<path class="st5" d="M51,494.9c7-5.5,16-5.6,24.5-5.8l1.1,13.6l-3.2,0.4c-0.7-2.8-1.4-4.9-2.3-6.5c-0.5-0.9-1.1-1.4-2.1-1.8
		c-0.8-0.3-1.9-0.4-3.3-0.4c-7.7,0-11.9,4.9-11.9,14c0,9.7,5,15.4,13.3,15.4c2.4,0,4.5-0.2,5.2-1.9c0.8-1.7,1.3-3.8,1.7-6.8l3.7,0.4
		l-0.7,11c-3.7,1.4-7.9,1.7-11.8,1.7c-13.4,0-20.9-6.5-20.9-18.2C44.3,503.4,46.7,498.2,51,494.9z"/>
	<path class="st5" d="M102.6,488.9c11.2,0,18,6.8,18,19c0,12.2-8.3,20.2-21.2,20.2c-11,0-17.8-6.9-17.8-18.5
		C81.6,497,90,488.9,102.6,488.9z M101.9,523.1c5.9,0,9.3-4.7,9.3-13c0-9.5-4.7-16.3-11.4-16.3c-5.6,0-8.9,4.6-8.9,12.5
		C90.9,516.5,95.2,523.1,101.9,523.1z"/>
	<path class="st5" d="M146.4,488.9c11.2,0,18,6.8,18,19c0,12.2-8.3,20.2-21.2,20.2c-11,0-17.8-6.9-17.8-18.5
		C125.4,497,133.8,488.9,146.4,488.9z M145.7,523.1c5.9,0,9.3-4.7,9.3-13c0-9.5-4.7-16.3-11.4-16.3c-5.6,0-8.9,4.6-8.9,12.5
		C134.7,516.5,139,523.1,145.7,523.1z"/>
	<path class="st5" d="M167.5,524.1l2.8-0.4c1.2-0.2,1.4-0.2,1.4-0.8c0.1-1.1,0.1-1.8,0.1-3.7v-21.4c0-1.9-0.1-2.6-0.1-3.7
		c-0.1-0.6-0.2-0.7-1.4-0.8l-2.8-0.4v-3.3c2.5,0.1,6.4,0.2,8.9,0.2s6.4-0.1,8.8-0.2v3.3l-2.8,0.4c-1.2,0.2-1.4,0.2-1.4,0.8
		c-0.1,1.1-0.1,1.8-0.1,3.7v21.4c0,1.9,0,2.6,0.1,3.7c0.1,0.6,0.2,0.7,1.4,0.8l2.8,0.4v3.2c-2.5-0.1-6.4-0.2-8.9-0.2
		s-6.5,0.1-8.9,0.2v-3.2H167.5z M188.8,498.2c1.6-1.6,3.1-3.2,4.4-5.1l-3.7-0.4v-3.3c2.5,0.2,4.9,0.3,7.4,0.3s5-0.1,7.5-0.3v3.3
		c-3.4,0.2-4.9,1.1-9.8,6.3l-4.9,5.1c3.2,5.9,10.4,17.1,16.2,21v2.4c-0.6,0.1-1.1,0.1-1.4,0.1c-3.5,0-6.6-0.8-9.5-2.6
		c-4.7-3.1-8.9-8.8-14-18.7L188.8,498.2z"/>
	<path class="st5" d="M207.4,502.3c1.6-2.4,3.5-5.6,3.5-8.5c0-1.6-0.7-2.8-2.6-4.4c2-3,3.7-4.8,4.7-4.8c1.6,0,4.7,2.7,4.7,6.4
		c0,3.2-2.5,7.7-7.3,12.9h-1.3L207.4,502.3z"/>
	<path class="st5" d="M222.4,514.1h4.2c-0.1,0.8-0.1,1.1-0.1,1.7c0,5.6,1.7,7.7,6.2,7.7c3.6,0,5.6-1.9,5.6-5.2
		c0-3.8-2.7-5.2-7.3-7.3c-5.1-2.4-8.8-4.1-8.8-10.5c0-7,5.9-11.6,15.1-11.6c2.9,0,5.6,0.4,8.4,1.1l-0.7,12.1h-3.3
		c-0.4-3.1-0.9-5.3-1.4-6.6c-0.5-1.4-2-2.1-4.4-2.1c-3.1,0-4.9,1.7-4.9,4.7c0,3.9,3.3,5.2,7.9,7.3c4.7,2.1,8.3,4,8.3,10
		c0,7.6-5.7,12.6-14.7,12.6c-5,0-8.9-1.4-10.7-2.6L222.4,514.1z"/>
	<path class="st5" d="M260.9,524.2l2.8-0.4c1.2-0.2,1.4-0.2,1.4-0.8c0.1-1.1,0.1-1.8,0.1-3.7v-7.5c-1.3,0-2-0.1-2.9-0.4l-0.2-0.9
		l3.2-4.6v-12.8c-0.8,0-2.6,0.1-4.1,0.3v-3.5c3.1-0.4,6.7-0.6,11.9-0.6c7.5,0,11.5,0.5,14.4,1.9c2.6,1.3,4,3.5,4,6.7
		c0,7.4-6.6,12.8-17.3,13.9v7.4c0,1.7,0.1,2.8,0.1,3.8c0.1,0.5,0.4,0.7,1.4,0.8l4.3,0.4v3.2c-3.1-0.2-6.4-0.3-9.5-0.3
		c-3.2,0-6.4,0.1-9.5,0.3L260.9,524.2L260.9,524.2z M282.3,499.7c0-4.4-3.2-6.7-8.2-6.7v13.9C279.3,506.9,282.3,505.4,282.3,499.7z"
		/>
	<path class="st5" d="M315.5,488.9c11.2,0,18,6.8,18,19c0,12.2-8.3,20.2-21.2,20.2c-11,0-17.8-6.9-17.8-18.5
		C294.4,497,302.8,488.9,315.5,488.9z M314.8,523.1c5.9,0,9.3-4.7,9.3-13c0-9.5-4.7-16.3-11.4-16.3c-5.6,0-8.9,4.6-8.9,12.5
		C303.8,516.5,308.1,523.1,314.8,523.1z"/>
	<path class="st5" d="M343.5,524.1l2.8-0.4c1.2-0.2,1.3-0.2,1.4-0.8c0.1-1.1,0.1-1.8,0.1-3.7v-25.4h-1.1c-0.3,0-1.6,0.1-2.2,0.1
		c-2.8,0.2-3.5,0.2-3.8,1.3c-0.4,1.1-0.6,2.5-1.1,5.3h-3.2l-0.7-11c5.8,0.3,11.5,0.3,17.3,0.3c5.5,0,10.9,0,16.3-0.3l-0.7,11h-3.3
		c-0.3-1.7-0.4-3.5-1-5.3c-0.4-1-0.9-1.1-3.7-1.3c-0.6-0.1-1.8-0.1-2.2-0.1h-1.5v25.4c0,1.9,0.1,2.6,0.1,3.7
		c0.1,0.6,0.2,0.7,1.4,0.8l2.7,0.4v3.2c-2.5-0.1-6.4-0.2-8.9-0.2s-6.4,0.1-8.8,0.2v-3.2H343.5z"/>
</g>
</svg>
