<?xml version="1.0" encoding="utf-8"?>
<!-- Generator: Adobe Illustrator 22.0.1, SVG Export Plug-In . SVG Version: 6.00 Build 0)  -->
<svg version="1.1" id="Layer_1" xmlns="http://www.w3.org/2000/svg" xmlns:xlink="http://www.w3.org/1999/xlink" x="0px" y="0px"
	 viewBox="0 0 756 588" style="enable-background:new 0 0 756 588;" xml:space="preserve">
<style type="text/css">
	.st0{fill:#FF8609;}
	.st1{fill:#FFC589;}
	.st2{fill:#FFFFFF;}
	.st3{fill:#73818D;}
	.st4{fill:none;}
	.st5{fill:#FF0909;}
	.st6{fill:#5B5B5B;}
</style>
<g>
	<g>
		<g>
			<path class="st0" d="M190.8,322.7l2.7-10.1l0.1-0.3c0.6-2.3,3-3.7,5.3-3.1l2.2,0.6l45.4,12.2v-14c91,3.6,182.2,3.6,273.2,0v14
				l45.4-12.2l2.2-0.6c2.3-0.6,4.7,0.7,5.3,3.1l0.1,0.3l2.7,10.1c0.6,2.3-0.7,4.7-3,5.3l-52.1,14c-0.2,0.1-0.4,0.1-0.6,0.1v18.1
				c0,95.7,15.8,111.3-136.6,111.3S246.6,456,246.6,360.3v-18.1c-0.2,0-0.4-0.1-0.6-0.1l-52.1-14
				C191.6,327.4,190.2,325.1,190.8,322.7z"/>
			<path class="st0" d="M267.4,267.4c37.7-8.2,81-9.1,122.9-6.5c-0.2-6.1-0.5-12.3-0.7-18.4c-6.3-2.5-10.2-5.9-9.8-9.4
				c0.5-5.9,13.3-9.7,28.5-8.3c15.2,1.3,27.2,7.2,26.7,13.2c-0.3,3.4-4.7,6.1-11.3,7.5c-1.3,6-2.6,12-3.9,18
				c41.7,4.8,84.1,13.2,119.9,27.8c7.1,2.9,3,12.3-1.1,12.1c-45.5-2.2-90.9-5.2-136.3-9.2c-45.4-4-90.7-8.8-135.8-14.6
				C262.3,279,259.9,269,267.4,267.4z"/>
			<path class="st1" d="M435.5,459.5c37.8-1.8,57-6.5,65.4-15.6c10.7-11.6,7.9-27.4,7.9-124.4c-24.2,0.9-48.8,1.5-73.2,1.9V459.5z"
				/>
			<path class="st1" d="M299.2,320.7c-14-0.3-27.9-0.8-41.6-1.3c0,92.8-2.4,108.3,5.3,121c3.6,6,11,12.4,36.3,16.2V320.7z"/>
			<path class="st1" d="M442.2,289.1c27.5,2.1,55.1,3.8,82.6,5.3c-26.8-9.6-59.3-16.8-96.7-21.6L442.2,289.1z"/>
			<path class="st1" d="M423.8,236.7c-5.9-10.2-25.4-11.8-32.9-2.9l-0.1,0.1c-0.1,0.1-0.1,0.3,0,0.4c0.1,0.1,0.1,0.1,0.2,0.1
				c9-2.2,23.9-1,32.6,2.8c0.1,0.1,0.3,0,0.3-0.1c0-0.1,0-0.2,0-0.2L423.8,236.7z"/>
			<path class="st2" d="M266.3,328.2c6.8,0.6,15.2,1.5,21.9,3.3c-8.4,2.9-11.8,3.5-13.3,5.3c-2.5,3,0.1,9.3-6.6,34.9
				C265.5,358.6,265.5,341.6,266.3,328.2z"/>
			<path class="st2" d="M446.6,448.1c64,4.3,55.2-15.9,51.6-96.9c0-0.2-0.1-0.3-0.3-0.3c-0.1,0-0.2,0.1-0.3,0.3
				c-9,66.8,7.4,83.8-51.1,96.3c-0.2,0-0.2,0.2-0.2,0.3C446.3,448,446.4,448.1,446.6,448.1z"/>
		</g>
		<g>
			<path class="st3" d="M209.8,106.1c0,0.1-0.1,0.2-0.1,0.3c-0.1,0.2-0.3,0.4-0.5,0.6c-0.4,0.3-0.8,0.6-1.2,0.8
				c-0.9,0.4-1.9,0.8-2.8,1.2c-1,0.5-2,0.9-3,1.4c0.1-0.5,0.3-1.1,0.3-1.6c0-0.3,0-0.6,0-0.9c0-0.3-0.1-0.6-0.3-0.9
				c0.1,0.3,0.1,0.6,0.1,0.9c0,0.3-0.1,0.6-0.2,0.9c-0.2,0.6-0.4,1.1-0.7,1.6c-0.1,0.2-0.3,0.5-0.4,0.7c-0.4,0.2-0.8,0.4-1.2,0.7
				c-1.8,1-3.5,2.1-5.1,3.3c-0.3,0.2-0.6,0.4-0.8,0.6c-1.8-3-5.1-7.7-7.7-6.3c-0.7,0.4-1,1.2-0.6,1.9c0.3,0.6,1,0.9,1.6,0.7
				c0.6,0.3,2.3,1.9,4.2,5.1c-0.3,0-0.6,0-0.9,0c-1.2,0-2.4,0.2-3.6,0.5c-1.2,0.3-2.3,0.8-3.3,1.5c-1,0.7-1.9,1.5-2.5,2.4
				c0.8-0.9,1.7-1.6,2.7-2.1c1-0.5,2.1-0.9,3.2-1.1c1.1-0.2,2.3-0.2,3.4-0.1c0.1,0,0.2,0,0.3,0c-9.3,5.3-13,16.6-8.2,25.7
				c4.8,9.3,16.7,12.7,26.5,7.6c9.8-5.1,13.8-16.8,8.9-26c-3.5-6.7-10.6-10.3-18-9.9c0.3-0.4,0.5-0.8,0.8-1.3c0.5-0.9,1-1.8,1.3-2.8
				c1.1-0.7,2.3-1.3,3.5-2c0.9-0.5,1.8-0.9,2.7-1.4c0.5-0.2,0.9-0.5,1.2-0.9c0.2-0.2,0.3-0.4,0.5-0.6
				C209.7,106.4,209.8,106.3,209.8,106.1c0-0.1,0-0.3,0-0.4C209.8,105.9,209.8,106,209.8,106.1z M194.5,150.6
				c-2.2-0.7-4.2-1.9-5.9-3.4c-1.7-1.5-3.1-3.3-4.2-5.3c-0.5-1-1-2-1.3-3.1c-0.2-0.5-0.3-1.1-0.4-1.6c-0.1-0.6-0.1-1.1-0.1-1.7
				c0.7,1.9,3.5,6.8,7.5,10.1c3.3,2.7,7,4.4,11.1,5.2C199,151.4,196.6,151.2,194.5,150.6z M199.3,113.3c-0.8,0.9-1.6,1.7-2.5,2.3
				c-0.1,0.1-0.3,0.2-0.4,0.3c-0.5,0.1-1,0.2-1.5,0.4c0.2-0.1,0.3-0.3,0.5-0.4c1.4-1.2,3-2.3,4.5-3.3
				C199.7,112.8,199.5,113,199.3,113.3z"/>
			<path class="st3" d="M242,119.1c0.4,0.6-0.5,2-2,3.2c-1.6,1.2-3.2,1.7-3.7,1.1c-0.4-0.6,0.5-2,2.1-3.2
				C239.9,119,241.6,118.5,242,119.1z M236.2,127.3c-1.1,0.8-1.8,1.8-1.5,2.1c0.3,0.3,1.4,0,2.5-0.9c1.1-0.8,1.8-1.8,1.5-2.1
				C238.4,126.1,237.3,126.5,236.2,127.3z M268.6,114.1c1.3,1.7,4.3,1.5,4.3,1.5c0.4,0,1,0.2,1.2,0.6l7.4,9.9c0.3,0.3,0.3,0.9,0,1.2
				l-33.4,41.6c-0.3,0.3-0.7,0.4-1,0.1l-8.5-8.2c-0.3-0.3-0.5-0.9-0.4-1.3c0,0,0.8-2.9-0.7-4.9c-1.6-2.1-4.2-2.9-5.7-1.8
				c-0.3,0.2-0.3,0.2-0.3,0.2c-0.2,0.3-0.7,0.3-1,0l-6.6-6.4c-0.3-0.3-0.4-0.9-0.3-1.3l12-30.7c0.2-0.4,0.6-0.8,1-1l9.2-2.9
				c0.4-0.1,0.8-0.2,0.8-0.2c0,0,0,0,0,0c1.3,1.7,3.6,2.1,5.2,0.9c1-0.7,1.3-2.4,1.3-2.4c0.1-0.4,0.5-0.9,0.9-1l10.5-3.3
				c0.4-0.1,1,0,1.2,0.4l2.3,3.1c0.3,0.3,0.3,1,0.2,1.4C268.4,109.6,267.3,112.4,268.6,114.1z M241.5,148c1-0.7,0.7-2.8-0.7-4.6
				c-1.3-1.8-3.2-2.7-4.2-1.9c-1,0.7-0.7,2.8,0.7,4.6C238.6,147.8,240.5,148.7,241.5,148z M252.4,155.3c-0.5-0.7-1.6-0.8-2.4-0.3
				c-0.8,0.6-0.9,1.6-0.4,2.3c0.5,0.7,1.6,0.9,2.4,0.3C252.8,157.1,253,156,252.4,155.3z M253.6,142.5c-1.4-1.9-3.5-2.8-4.6-1.9
				c-1.1,0.8,1,2.3,0.6,4.9c-0.4,2.3,3.5,2.8,4.6,1.9C255.3,146.6,255,144.4,253.6,142.5z M259.6,128.2c-3.6-0.3-5.1-3.9-6.8-2.6
				c-1.7,1.3-1.4,4.5,0.6,7.2c2,2.7,5.1,3.9,6.8,2.6C262,134.2,263,128.5,259.6,128.2z M273,124.3c-1.5-1.9-3.5-2.9-4.5-2.2
				c-1,0.8-1.5,4.1,0.8,4.9c1.8,0.6,3.5,2.9,4.5,2.2C274.8,128.5,274.4,126.3,273,124.3z M226.2,143.3c-0.2,0.4,0,0.5,0.3,0.2
				l36.9-36.5c0.3-0.3,0.2-0.4-0.2-0.3l-7.4,2.6c-0.4,0.1-0.9,0.6-1,1c0,0-0.6,1.7-1.7,2.5c-1.2,0.9-2.6,1.2-4,0.9
				c-1-0.2-2.1-0.9-2.1-0.9c-0.4-0.2-1-0.3-1.4-0.2l-7.5,2.4c-0.4,0.1-0.9,0.6-1,1L226.2,143.3z"/>
			<path class="st3" d="M237.7,47c-2.8,3.8-6.6,6-11.3,6.5c-1.1,0.1-2.1,0-3.1-0.3c0,0,0,0,0-0.1c0-1.6,0.2-3.2,0.4-5.1
				c0.1-0.6,0.2-1.2,0.3-1.8c1.4,0.1,2.8,0.1,4.1-0.2c1.6-0.3,3.1-0.8,4.6-1.5c1.4-0.7,2.8-1.6,4-2.7c0.9-0.8,1.8-1.7,2.4-2.6
				c0.2-0.3,0.5-0.7,0.7-1c0.1-0.2,0-0.4-0.1-0.5c-0.2-0.1-0.4-0.1-0.5,0.1c0,0-0.3,0.4-0.3,0.4c-0.8,1-1.7,2-2.9,2.9
				c-1.2,0.9-2.5,1.7-3.9,2.3c-1.4,0.6-2.9,1-4.3,1.2c-1.2,0.1-2.4,0.1-3.6,0c0.1-0.5,0.2-1,0.4-1.5c0.8-3.2,1.9-6.5,3.2-9.8
				c0.2-0.5,0.4-1.1,0.7-1.6c1.2,0.2,2.5,0.2,3.7,0.1c1.3-0.1,2.5-0.5,3.6-0.9c1.2-0.5,2.3-1.1,3.2-1.9c0.7-0.6,1.3-1.2,1.8-1.9
				c0.2-0.3,0.4-0.6,0.6-0.9c0.1-0.2,0-0.4-0.1-0.5c-0.2-0.1-0.4-0.1-0.5,0.1c0,0-0.2,0.2-0.2,0.2c-0.6,0.8-1.4,1.6-2.2,2.2
				c-0.9,0.6-1.9,1.1-3,1.5c-1.1,0.3-2.2,0.5-3.3,0.6c-1,0-1.9,0-2.8-0.2c1-2.1,2-4.2,3.1-6.1c0.9-1.6,1.8-3.1,2.7-4.4
				c0.3-0.5,0.7-0.9,1-1.4c0.8-1,1.5-1.9,2.2-2.7c0,0,0,0,0,0c0.1-0.1,0.1-0.3,0-0.5c-0.1-0.1-0.4-0.1-0.5,0c-1.1,1.1-2.2,2.3-3.4,4
				c-1,1.4-2,2.9-3,4.5c-0.8,1.3-1.5,2.5-2.2,3.9c-0.3-0.1-0.6-0.4-0.9-0.7c-0.3-0.4-0.5-0.8-0.6-1.4c-0.1-0.5-0.3-1-0.3-1.6
				c-0.1-0.5-0.1-1.1-0.1-1.6c0-0.2-0.2-0.3-0.3-0.3c-0.1,0-0.2,0.1-0.3,0.1c0,0-0.1,0.1-0.1,0.2c0,0.6-0.1,1.1-0.1,1.7
				c0,0.6,0.1,1.2,0.2,1.8c0.1,0.7,0.3,1.3,0.6,1.8c0.2,0.3,0.4,0.6,0.6,0.8c0.2,0.2,0.4,0.4,0.7,0.5c-0.7,1.3-1.3,2.7-2,4.1
				c-0.8,1.8-1.6,3.7-2.2,5.5c-0.4-0.2-0.9-0.6-1.3-1.1c-0.5-0.6-0.9-1.4-1.3-2.3c-0.6-1.6-1-3.4-1-5.4c0-0.2-0.2-0.3-0.3-0.3
				c-0.1,0-0.2,0.1-0.3,0.1c0,0-0.1,0.1-0.1,0.2c-0.2,2.1,0,4,0.5,5.8c0.3,1.1,0.7,2,1.3,2.8c0.3,0.5,0.7,0.9,1.1,1.2
				c0.2,0.2,0.4,0.4,0.7,0.5c0.1,0,0.1,0.1,0.2,0.1c-0.3,0.9-0.6,1.9-0.9,2.8c-0.5,1.8-0.9,3.5-1.3,5.2l-0.1,0.3
				c-0.3-0.2-0.6-0.6-0.8-0.9c-0.5-0.7-1-1.6-1.4-2.5c-0.4-0.9-0.6-1.9-0.8-2.9c-0.2-1-0.3-2-0.3-3c0-0.2-0.2-0.3-0.3-0.3
				c-0.1,0-0.2,0.1-0.3,0.1c0,0-0.1,0.1-0.1,0.2c-0.1,1-0.1,2.1,0.1,3.2c0.1,1.1,0.3,2.1,0.6,3.1c0.4,1.1,0.8,2.1,1.3,3
				c0.3,0.5,0.7,1,1.1,1.4c0.2,0.2,0.4,0.4,0.7,0.6l0,0c-0.1,0.7-0.2,1.4-0.2,2.1c-0.6-0.5-1.1-1-1.5-1.7c-5.7-9.4-2-18,2.2-23.7
				c5.6-7.6,13.9-12.4,17.9-13.1C244.3,25.6,243.5,39.3,237.7,47C237.7,47,237.7,47,237.7,47z"/>
			<path class="st3" d="M291,240.5c1.6-1.2,1.5-3.1,2.6-4.7c1-1.3,1.4-2.9,1.2-4.5c-0.8-5.4-5.7-10.7-12.8-13.1
				c-9.1-3.1-18.3-0.2-20.6,6.4c-2.3,6.6,3.3,14.5,12.4,17.6C280.4,244.4,286.9,243.6,291,240.5z M269.9,219.7
				c1.9-0.7,3.9-1,5.8-0.9c2,0.1,3.9,0.5,5.7,1.2c1.8,0.7,3.5,1.6,5,2.8c-1.9-0.4-3.7-0.9-5.5-1.3c-1.8-0.4-3.6-0.6-5.4-0.7
				c-1.8-0.1-3.6,0.1-5.3,0.4c-1.8,0.3-3.5,0.8-5.4,1.4C266.3,221.4,268,220.4,269.9,219.7z"/>
			<path class="st3" d="M210.2,95.4c0,0,11.2,6.5,16.3,14.3c2.2-0.7,5.9-6,7.6-7.8c1.7-1.8,5.2-4,5.9-6.4c-4.4-2.9-15-15.7-15-15.7
				c6.6-0.9,8.7-9.8,2.7-15.5c-7.8-7.5-19.3-3.7-28.4,5.8c-9.1,9.5-12.4,21.1-4.6,28.6C200.8,104.5,209.6,102,210.2,95.4z M215,76.8
				c-0.7-1.1,1.6-3.9,3.1-4.9c5.5-3.6,8.1,2.4,8.5,3.3c0.8,2.1-2.1-2.6-7.4,0.9C217,77.6,215.5,77.6,215,76.8z M202,88.8
				c0.9-1.6,3.6-4,4.8-3.4c0.8,0.5,0.9,2-0.4,4.3c-3.3,5.5,1.5,8.2-0.6,7.4C204.7,96.8,198.6,94.4,202,88.8z"/>
			<path class="st3" d="M240.6,176.1c1,0.2,2.5,0.8,4.1,1.9c1.6,1.1,3.3,2.7,4.7,4.8c1.4,2.1,2.6,4.7,3.2,7.6
				c0.3,1.5,0.3,2.8,0.3,3.9c0,0.5,0.1,1.6,0.2,1.7c1.8,1.4,3.3,3.4,3.9,6c-0.4,0.1-0.9,0.2-1.4,0.2c-1.9,0.1-4.1-0.4-6.3-1.4
				c-3.5-1.6-5.6-4-6.1-5.7c1.5-0.8,3-1.2,4.5-1.1c0.7,0,1.4,0.1,2.1,0.4c0.2,0,0.4-2,0.2-3.4c-0.5-2.5-1.5-4.9-2.6-6.8
				c-1.2-1.9-2.5-3.5-3.8-4.7c-1.3-1.2-2.5-1.9-3.3-2.5c-0.8-0.5-1.3-0.8-1.3-1C238.9,175.9,239.5,175.9,240.6,176.1z M241.5,196.2
				c-15.2,11.5-24.9,64.8-4.6,82.3c3.4,2.9,9.8,5.3,14.4,9.6c0.7,0.6,1.5,0.1,1.2-0.9c-3-9.6-12.3-21.3-12.2-29.6
				c0.2-11.3,3.5-23.2,6.3-29c3.2-6.8,7.2-10.6,10-19.4c0.6-1.9,0.8-3.6,0.7-5.2c-0.5,0.1-1,0.2-1.6,0.2c-2.2,0.1-4.7-0.5-7.1-1.6
				C245,201,242.5,198.6,241.5,196.2z"/>
			<path class="st3" d="M290,209.4c-4.4-1.2-6.4-3.4-11.2-7.5c-4-3.5-8.7-8-13.5-15.3c-1.5-2.3-1.9-4-1.4-5.7
				c0.9-2.8,4.7-7.3,13.7-8.4c0,0,0.2,0,0.2,0c0.1,0,0.2-0.1,0.3-0.1c6.5-3.6,6.9-2.8,8-3.1c1.1-0.3,1.3-7.8,9.1-6.9
				c1.7,0.2,3.1,0.8,4.1,1.7c4.1,3.6,3.2,8.4,7.3,16.5c3.5,6.9,3.1,14.4,0.3,20.1C303.7,207.2,297.2,211.3,290,209.4z M277.7,203.4
				c-5-3.5-16.3-14.9-18.1-20.4c-0.8-2.5-1.1-5.9,1.9-8.8c1.6-1.5,6.5-3.3,8.4-1.8c-4.6,2.4-7,5.7-7.7,7.9
				c-0.9,2.6,0.9,6.4,3.6,10.2c3.6,5.2,9,10.4,11.9,12.9L277.7,203.4z M277.3,170.4c-1.7,0.2-3.4,0.5-5.1,1l-0.4,0.1
				c0.1-0.1,0.1-0.2,0.2-0.2c0.2-0.3,0.4-0.6,0.5-0.9c0.9-1.5,1.7-0.8,2.1-1.7c0.3-0.7-0.3-7.3,0-10c0.2-1.9-1.2-12.4,4.5-14.9
				c3.8-1.7,4.7-0.1,8.5,0.2c0,0,0.2,0,0.2,0c0.7-0.1,1,0,1,0.1c-0.4,1.1-1,2.3-1.5,3c-0.4,0.5-0.7,0.6-0.7,0.7c0,0-0.2-0.4-0.3-1
				c-0.3-1.8-4-1.4-5.5-0.6c-2.6,1.4-3.2,6.3-3.1,7.6c0.3,4.3,0.8,9.9,4.6,11.2l0.3,0.1c0.1,0,0.1,0,0.2,0c0,0,0.4-0.2,0.4-0.2
				c0.5-0.2,0.9-0.4,1.4-0.5c0.3-0.1,0.6-0.1,0.8-0.2c0.1,0,0.5,0,0.9,0c-0.6,0.9-1.1,1.8-1.5,2.9c0,0,0,0,0,0
				c-2.1,0.3-4.5,1.5-6.3,2.5L277.3,170.4z M287.5,163.1c-0.2,0-0.5-0.1-0.9-0.1c-0.2,0-1-0.1-1.4,0c2.9-2.9,6.4-4.3,10.2-2.6
				c0.1,0.1,0.2,0.1,0.3,0.2c-0.1,0-0.2,0-0.4,0C292.3,160.1,289.6,160.9,287.5,163.1z"/>
		</g>
	</g>
	<g>
		<rect x="208.7" y="483" class="st4" width="346.6" height="58"/>
		<path class="st5" d="M227,494.9c7-5.5,16-5.6,24.5-5.8l1.1,13.6l-3.2,0.4c-0.7-2.8-1.4-4.9-2.3-6.5c-0.5-0.9-1.1-1.4-2.1-1.8
			c-0.8-0.3-1.9-0.4-3.3-0.4c-7.7,0-11.9,4.9-11.9,14c0,9.7,5,15.4,13.3,15.4c2.4,0,4.5-0.2,5.2-1.9c0.8-1.7,1.3-3.8,1.7-6.8
			l3.7,0.4l-0.7,11c-3.7,1.4-7.9,1.7-11.8,1.7c-13.4,0-20.9-6.5-20.9-18.2C220.3,503.4,222.7,498.2,227,494.9z"/>
		<path class="st5" d="M278.6,488.9c11.2,0,18,6.8,18,19c0,12.2-8.3,20.2-21.2,20.2c-11,0-17.8-6.9-17.8-18.5
			C257.6,497,266,488.9,278.6,488.9z M277.9,523.1c5.9,0,9.3-4.7,9.3-13c0-9.5-4.7-16.3-11.4-16.3c-5.6,0-8.9,4.6-8.9,12.5
			C266.9,516.5,271.2,523.1,277.9,523.1z"/>
		<path class="st5" d="M322.4,488.9c11.2,0,18,6.8,18,19c0,12.2-8.3,20.2-21.2,20.2c-11,0-17.8-6.9-17.8-18.5
			C301.4,497,309.8,488.9,322.4,488.9z M321.7,523.1c5.9,0,9.3-4.7,9.3-13c0-9.5-4.7-16.3-11.4-16.3c-5.6,0-8.9,4.6-8.9,12.5
			C310.7,516.5,315,523.1,321.7,523.1z"/>
		<path class="st5" d="M343.5,524.1l2.8-0.4c1.2-0.2,1.4-0.2,1.4-0.8c0.1-1.1,0.1-1.8,0.1-3.7v-21.4c0-1.9-0.1-2.6-0.1-3.7
			c-0.1-0.6-0.2-0.7-1.4-0.8l-2.8-0.4v-3.3c2.5,0.1,6.4,0.2,8.9,0.2c2.5,0,6.4-0.1,8.8-0.2v3.3l-2.8,0.4c-1.2,0.2-1.4,0.2-1.4,0.8
			c-0.1,1.1-0.1,1.8-0.1,3.7v21.4c0,1.9,0,2.6,0.1,3.7c0.1,0.6,0.2,0.7,1.4,0.8l2.8,0.4v3.2c-2.5-0.1-6.4-0.2-8.9-0.2
			c-2.5,0-6.5,0.1-8.9,0.2V524.1z M364.8,498.2c1.6-1.6,3.1-3.2,4.4-5.1l-3.7-0.4v-3.3c2.5,0.2,4.9,0.3,7.4,0.3c2.5,0,5-0.1,7.5-0.3
			v3.3c-3.4,0.2-4.9,1.1-9.8,6.3l-4.9,5.1c3.2,5.9,10.4,17.1,16.2,21v2.4c-0.6,0.1-1.1,0.1-1.4,0.1c-3.5,0-6.6-0.8-9.5-2.6
			c-4.7-3.1-8.9-8.8-14-18.7L364.8,498.2z"/>
		<path class="st5" d="M383.4,502.3c1.6-2.4,3.5-5.6,3.5-8.5c0-1.6-0.7-2.8-2.6-4.4c2-3,3.7-4.8,4.7-4.8c1.6,0,4.7,2.7,4.7,6.4
			c0,3.2-2.5,7.7-7.3,12.9h-1.3L383.4,502.3z"/>
		<path class="st5" d="M398.4,514.1h4.2c-0.1,0.8-0.1,1.1-0.1,1.7c0,5.6,1.7,7.7,6.2,7.7c3.6,0,5.6-1.9,5.6-5.2
			c0-3.8-2.7-5.2-7.3-7.3c-5.1-2.4-8.8-4.1-8.8-10.5c0-7,5.9-11.6,15.1-11.6c2.9,0,5.6,0.4,8.4,1.1l-0.7,12.1h-3.3
			c-0.4-3.1-0.9-5.3-1.4-6.6c-0.5-1.4-2-2.1-4.4-2.1c-3.1,0-4.9,1.7-4.9,4.7c0,3.9,3.3,5.2,7.9,7.3c4.7,2.1,8.3,4,8.3,10
			c0,7.6-5.7,12.6-14.7,12.6c-5,0-8.9-1.4-10.7-2.6L398.4,514.1z"/>
		<path class="st5" d="M436.9,524.2l2.8-0.4c1.2-0.2,1.4-0.2,1.4-0.8c0.1-1.1,0.1-1.8,0.1-3.7v-7.5c-1.3,0-2-0.1-2.9-0.4l-0.2-0.9
			l3.2-4.6v-12.8c-0.8,0-2.6,0.1-4.1,0.3v-3.5c3.1-0.4,6.7-0.6,11.9-0.6c7.5,0,11.5,0.5,14.4,1.9c2.6,1.3,4,3.5,4,6.7
			c0,7.4-6.6,12.8-17.3,13.9v7.4c0,1.7,0.1,2.8,0.1,3.8c0.1,0.5,0.4,0.7,1.4,0.8l4.3,0.4v3.2c-3.1-0.2-6.4-0.3-9.5-0.3
			c-3.2,0-6.4,0.1-9.5,0.3V524.2z M458.3,499.7c0-4.4-3.2-6.7-8.2-6.7v13.9C455.3,506.9,458.3,505.4,458.3,499.7z"/>
		<path class="st5" d="M491.5,488.9c11.2,0,18,6.8,18,19c0,12.2-8.3,20.2-21.2,20.2c-11,0-17.8-6.9-17.8-18.5
			C470.4,497,478.8,488.9,491.5,488.9z M490.8,523.1c5.9,0,9.3-4.7,9.3-13c0-9.5-4.7-16.3-11.4-16.3c-5.6,0-8.9,4.6-8.9,12.5
			C479.8,516.5,484.1,523.1,490.8,523.1z"/>
		<path class="st5" d="M519.5,524.1l2.8-0.4c1.2-0.2,1.3-0.2,1.4-0.8c0.1-1.1,0.1-1.8,0.1-3.7v-25.4h-1.1c-0.3,0-1.6,0.1-2.2,0.1
			c-2.8,0.2-3.5,0.2-3.8,1.3c-0.4,1.1-0.6,2.5-1.1,5.3h-3.2l-0.7-11c5.8,0.3,11.5,0.3,17.3,0.3c5.5,0,10.9,0,16.3-0.3l-0.7,11h-3.3
			c-0.3-1.7-0.4-3.5-1-5.3c-0.4-1-0.9-1.1-3.7-1.3c-0.6-0.1-1.8-0.1-2.2-0.1h-1.5v25.4c0,1.9,0.1,2.6,0.1,3.7
			c0.1,0.6,0.2,0.7,1.4,0.8l2.7,0.4v3.2c-2.5-0.1-6.4-0.2-8.9-0.2c-2.5,0-6.4,0.1-8.8,0.2V524.1z"/>
	</g>
	<g>
		<rect x="3" y="546" class="st4" width="758" height="49"/>
		<path class="st6" d="M39,583.4c0.4-1.6,1.2-5.7,1.8-9.1l3.1-17.7c0.6-3.4,1.1-6.3,1.3-8.1h7c6.6,0,9.5,4.2,9.5,9.2
			c0,6.9-5.5,11.9-13,11.9h-3.3l-0.8,4.7c-0.6,3.6-1.3,7.5-1.4,9.1H39z M46,566.7h2.9c5.2,0,8.9-3.9,8.9-8.8c0-3.3-1.6-6.4-6.3-6.4
			h-2.9L46,566.7z"/>
		<path class="st6" d="M79.7,582.5c-1.3,0.2-3.8,1.3-6.9,1.3c-6.4,0-9.9-4.3-9.9-10.3c0-7.4,5.5-13.3,12.1-13.3c6.2,0,8.3,5,8.3,9.1
			c0,0.6-0.1,1.3-0.3,2c-3.6,0.8-10.8,1.3-16.6,1.1c0,0.2,0,0.3,0,0.5c0,5.3,2.9,7.8,7.4,7.8c2.3,0,4.6-0.5,6.6-1.9L79.7,582.5z
			 M66.7,569.9c4.5,0.2,10.8-0.2,12.9-0.8c0.2-2.9-1.3-6.1-5-6.1C71.2,563,67.8,565.7,66.7,569.9z"/>
		<path class="st6" d="M87.3,578.1l2.7-15.2h-2.2c0.6-0.8,1.1-1.5,1.5-2.3h4.7l-0.7,3.7c1.6-2.3,4.4-4.1,7.8-4.1
			c5.1,0,7.3,3.6,6.3,9.9l-1.3,8c-0.3,1.7-0.6,3.8-0.7,5.3h-4c0.4-1.5,0.9-3.8,1.1-5.3l1.3-8.1c0.7-4.4-0.8-6.9-4.2-6.9
			s-6.3,2.7-7,6.6l-1.4,8.4c-0.3,1.6-0.7,3.8-0.8,5.3h-4C86.5,581.9,87,579.6,87.3,578.1z"/>
		<path class="st6" d="M121.1,583.5c-0.7,0-1.6,0.3-2.7,0.3c-3.3,0-5.9-2-4.9-7.6l2.5-12.5h-3.5l0.6-3h3.5l0.4-1.7
			c0.4-1.7,0.7-3.2,0.9-4.5h3.8c-0.4,1.4-0.7,2.9-1,4.5l-0.4,1.7h5.3l-0.5,3h-5.3l-2.4,11.9c-0.7,3.8,0.5,5.2,2.4,5.2
			c0.7,0,1.5-0.2,2-0.6L121.1,583.5z"/>
		<path class="st6" d="M138.2,560.2c5.8,0,9.4,4.4,9.4,9.9c0,7.5-5.3,13.6-12.5,13.6c-5.7,0-9.4-4.3-9.4-10
			C125.7,566.2,131.3,560.2,138.2,560.2z M135.5,580.6c4.5,0,8.5-4.5,8.5-10.2c0-4.1-2.5-7-6.3-7c-4.6,0-8.5,4.5-8.5,10.1
			C129.3,577.7,131.7,580.6,135.5,580.6z"/>
		<path class="st6" d="M151.6,578.2l5.2-29.9h-2.1c0.5-0.7,1.1-1.6,1.4-2.3h5c-0.3,1.2-0.8,3.6-1.1,5.3l-4.7,26.9
			c-0.4,1.8-0.7,4.1-0.8,5.3h-4C150.8,582.3,151.3,579.9,151.6,578.2z"/>
		<path class="st6" d="M178.3,582.5c-1.3,0.2-3.8,1.3-6.9,1.3c-6.4,0-9.9-4.3-9.9-10.3c0-7.4,5.5-13.3,12.1-13.3
			c6.2,0,8.3,5,8.3,9.1c0,0.6-0.1,1.3-0.3,2c-3.6,0.8-10.8,1.3-16.6,1.1c0,0.2,0,0.3,0,0.5c0,5.3,2.9,7.8,7.4,7.8
			c2.3,0,4.6-0.5,6.6-1.9L178.3,582.5z M165.4,569.9c4.5,0.2,10.8-0.2,12.9-0.8c0.2-2.9-1.3-6.1-5-6.1
			C169.8,563,166.5,565.7,165.4,569.9z"/>
		<path class="st6" d="M194.9,577.7c0.6,1.9,2.9,3.3,5.2,3.3c2.1,0,4-1.3,4-3.9c0-4.1-6.8-5.1-6.8-10.5c0-3.5,2.8-6.4,7.2-6.4
			c2.5,0,3.9,1,5,1l-0.8,4.3c-0.4-1.6-2.5-2.6-4.4-2.6c-2.3,0-3.5,1.6-3.5,3.3c0,3.9,6.9,4.7,6.9,10.5c0,4.5-3.7,7.1-7.8,7.1
			c-3,0-4.8-1.2-6.1-1.5L194.9,577.7z"/>
		<path class="st6" d="M227.3,583.4c-0.3-0.7-0.3-2-0.1-3.6c-1.6,2.4-4.1,4-7.3,4c-4.6,0-7.8-2.8-6.5-9.3l2.1-11.5h-2.2
			c0.5-0.7,1.1-1.6,1.5-2.3h5c-0.4,1.5-0.9,3.8-1.2,5.3l-1.5,8.5c-0.9,5.2,1.8,6.4,4.3,6.4c2.4,0,5.9-1.6,6.8-6.5l1.5-8.4
			c0.3-1.4,0.6-3.7,0.8-5.2h4c-0.4,1.5-0.9,3.8-1.1,5.2l-2.2,12.5c-0.4,2.2-0.5,3.8-0.2,5H227.3z"/>
		<path class="st6" d="M237.7,578.2l5.2-29.9h-2.1c0.5-0.7,1.1-1.6,1.4-2.3h5c-0.3,1.2-0.8,3.6-1.1,5.3l-4.7,26.9
			c-0.4,1.8-0.7,4.1-0.8,5.3h-4C236.9,582.3,237.3,579.9,237.7,578.2z"/>
		<path class="st6" d="M247.9,578.2l5.2-29.9h-2.1c0.5-0.7,1.1-1.6,1.4-2.3h5c-0.3,1.2-0.8,3.6-1.1,5.3l-4.7,26.9
			c-0.4,1.8-0.7,4.1-0.8,5.3h-4C247.1,582.3,247.5,579.9,247.9,578.2z"/>
		<path class="st6" d="M268.8,545.9c-1.2,6.6-3.3,11.4-5.2,13.8h-3.1c1.7-2.7,3.4-7.3,4.5-13.8H268.8z"/>
		<path class="st6" d="M284.5,560.2c5.8,0,9.4,4.4,9.4,9.9c0,7.5-5.3,13.6-12.5,13.6c-5.7,0-9.4-4.3-9.4-10
			C272,566.2,277.6,560.2,284.5,560.2z M281.8,580.6c4.5,0,8.5-4.5,8.5-10.2c0-4.1-2.5-7-6.3-7c-4.6,0-8.5,4.5-8.5,10.1
			C275.6,577.7,278,580.6,281.8,580.6z"/>
		<path class="st6" d="M297,583.4c0.4-1.7,0.7-3.3,1.1-5.3l2.7-15.3h-2.1c0.5-0.7,1.1-1.8,1.4-2.2h4.4l-1,5c2-3.6,4.7-5.5,7.4-5.5
			c1.1,0,1.6,0.2,2,0.2l-0.8,4.1c-0.5-0.5-1.4-0.8-2.4-0.8c-3.3,0-6.3,4.2-6.8,7.6l-1.3,6.8c-0.4,1.8-0.6,3.4-0.8,5.3H297z"/>
		<path class="st6" d="M314.4,578.2l5.2-29.9h-2.1c0.5-0.7,1.1-1.6,1.4-2.3h5c-0.3,1.2-0.8,3.6-1.1,5.3l-4.7,26.9
			c-0.4,1.8-0.7,4.1-0.8,5.3h-4C313.6,582.3,314.1,579.9,314.4,578.2z"/>
		<path class="st6" d="M336.7,560.2c5.8,0,9.4,4.4,9.4,9.9c0,7.5-5.3,13.6-12.5,13.6c-5.7,0-9.4-4.3-9.4-10
			C324.2,566.2,329.8,560.2,336.7,560.2z M334.1,580.6c4.5,0,8.5-4.5,8.5-10.2c0-4.1-2.5-7-6.3-7c-4.6,0-8.5,4.5-8.5,10.1
			C327.8,577.7,330.2,580.6,334.1,580.6z"/>
		<path class="st6" d="M376.3,583.4c0.3-0.9,0.6-2.6,0.8-3.9c-1.9,2.4-4.4,4.2-8.1,4.2c-4.7,0-8.7-4-8.7-9.9
			c0-7.8,5.6-13.6,12.1-13.6c4.1,0,6.3,2.3,7.2,4.8l3-16.7h-2.2c0.5-0.6,1.1-1.6,1.4-2.3h4.9c-0.4,1.6-0.7,3.2-0.9,4.4l-4.8,27.3
			c-0.4,1.9-0.8,4.3-0.8,5.7H376.3z M370.3,580.6c4.9,0,8.4-4.9,8.4-10.5c0-4.1-2.1-6.8-5.9-6.8c-4.7,0-8.6,4.6-8.6,10.1
			C364.2,577.9,366.9,580.6,370.3,580.6z"/>
		<path class="st6" d="M386.7,583.4c0.3-1.1,0.8-3.5,1.1-5.3l2.7-15.2h-2.2c0.5-0.6,1-1.6,1.5-2.3h4.9c-0.3,1.1-0.8,3.4-1.1,5.2
			l-2.1,12.3c-0.4,1.9-0.7,4.3-0.8,5.3H386.7z M391.7,553.9c0-1.5,1.4-2.5,2.5-2.5c1.1,0,1.8,0.9,1.8,2c0,1.5-1.3,2.5-2.6,2.5
			C392.5,555.9,391.7,555,391.7,553.9z"/>
		<path class="st6" d="M423.4,583.4c-0.3-0.7-0.3-2-0.1-3.6c-1.6,2.4-4.1,4-7.3,4c-4.6,0-7.8-2.8-6.5-9.3l2.1-11.5h-2.2
			c0.5-0.7,1.1-1.6,1.5-2.3h5c-0.4,1.5-0.9,3.8-1.2,5.3l-1.5,8.5c-0.9,5.2,1.8,6.4,4.3,6.4c2.4,0,5.9-1.6,6.8-6.5l1.5-8.4
			c0.3-1.4,0.6-3.7,0.8-5.2h4c-0.4,1.5-0.9,3.8-1.1,5.2l-2.2,12.5c-0.4,2.2-0.5,3.8-0.2,5H423.4z"/>
		<path class="st6" d="M434,578.1l2.7-15.2h-2.2c0.6-0.8,1.1-1.5,1.5-2.3h4.7l-0.7,3.7c1.6-2.3,4.4-4.1,7.8-4.1
			c5.1,0,7.3,3.6,6.3,9.9l-1.3,8c-0.3,1.7-0.6,3.8-0.7,5.3h-4c0.4-1.5,0.9-3.8,1.1-5.3l1.3-8.1c0.7-4.4-0.8-6.9-4.2-6.9
			c-3.4,0-6.3,2.7-7,6.6l-1.4,8.4c-0.3,1.6-0.7,3.8-0.8,5.3h-4C433.2,581.9,433.7,579.6,434,578.1z"/>
		<path class="st6" d="M474.7,583.4c0.3-0.9,0.6-2.6,0.8-3.9c-1.9,2.4-4.4,4.2-8.1,4.2c-4.7,0-8.7-4-8.7-9.9
			c0-7.8,5.6-13.6,12.1-13.6c4.1,0,6.3,2.3,7.2,4.8l0.2-1.2c0.3-1.3,0.4-2.1,0.5-3.2h3.9c-0.4,1.3-0.7,3-1,4.6l-2.1,12.5
			c-0.4,1.9-0.8,4.3-0.8,5.7H474.7z M468.7,580.6c4.9,0,8.5-4.9,8.5-10.5c0-4.1-2.2-6.8-6-6.8c-4.7,0-8.6,4.6-8.6,10.1
			C462.6,577.9,465.3,580.6,468.7,580.6z"/>
		<path class="st6" d="M510.8,583.2c-1.3,0.2-3.1,0.6-4.9,0.6c-6,0-9.7-4.5-9.7-10.1c0-7.8,6.3-13.5,13.6-13.5
			c2.3,0,3.4,0.5,4.8,0.7l-0.7,3.9c-1-0.8-2.4-1.4-4.5-1.4c-4.7,0-9.4,3.9-9.4,9.9c0,4.5,2.8,7.3,6.8,7.3c1.8,0,3.5-0.4,4.7-1.3
			L510.8,583.2z"/>
		<path class="st6" d="M516.1,583.4c0.4-1.7,0.7-3.3,1.1-5.3l2.7-15.3h-2.1c0.5-0.7,1.1-1.8,1.4-2.2h4.4l-1,5c2-3.6,4.7-5.5,7.4-5.5
			c1.1,0,1.6,0.2,2,0.2l-0.8,4.1c-0.5-0.5-1.4-0.8-2.4-0.8c-3.3,0-6.3,4.2-6.8,7.6l-1.3,6.8c-0.4,1.8-0.6,3.4-0.8,5.3H516.1z"/>
		<path class="st6" d="M532.6,583.4c0.3-1.1,0.8-3.5,1.1-5.3l2.7-15.2h-2.2c0.5-0.6,1-1.6,1.5-2.3h4.9c-0.3,1.1-0.8,3.4-1.1,5.2
			l-2.1,12.3c-0.4,1.9-0.7,4.3-0.8,5.3H532.6z M537.6,553.9c0-1.5,1.4-2.5,2.5-2.5c1.1,0,1.8,0.9,1.8,2c0,1.5-1.3,2.5-2.6,2.5
			C538.3,555.9,537.6,555,537.6,553.9z"/>
		<path class="st6" d="M542.7,577.7c0.6,1.9,2.9,3.3,5.2,3.3c2.1,0,4-1.3,4-3.9c0-4.1-6.8-5.1-6.8-10.5c0-3.5,2.8-6.4,7.2-6.4
			c2.5,0,3.9,1,5,1l-0.8,4.3c-0.4-1.6-2.5-2.6-4.4-2.6c-2.3,0-3.5,1.6-3.5,3.3c0,3.9,6.9,4.7,6.9,10.5c0,4.5-3.7,7.1-7.8,7.1
			c-3,0-4.8-1.2-6.1-1.5L542.7,577.7z"/>
		<path class="st6" d="M559.8,583.4c0.3-1.1,0.8-3.5,1.1-5.3l2.7-15.2h-2.2c0.5-0.6,1-1.6,1.5-2.3h4.9c-0.3,1.1-0.8,3.4-1.1,5.2
			l-2.1,12.3c-0.4,1.9-0.7,4.3-0.8,5.3H559.8z M564.8,553.9c0-1.5,1.4-2.5,2.5-2.5c1.1,0,1.8,0.9,1.8,2c0,1.5-1.3,2.5-2.6,2.5
			C565.5,555.9,564.8,555,564.8,553.9z"/>
		<path class="st6" d="M597.4,583.4c0.3-0.9,0.6-2.6,0.8-3.9c-1.9,2.4-4.4,4.2-8.1,4.2c-4.7,0-8.7-4-8.7-9.9
			c0-7.8,5.6-13.6,12.1-13.6c4.1,0,6.3,2.3,7.2,4.8l3-16.7h-2.2c0.5-0.6,1.1-1.6,1.4-2.3h4.9c-0.4,1.6-0.7,3.2-0.9,4.4l-4.8,27.3
			c-0.4,1.9-0.8,4.3-0.8,5.7H597.4z M591.4,580.6c4.9,0,8.4-4.9,8.4-10.5c0-4.1-2.1-6.8-5.9-6.8c-4.7,0-8.6,4.6-8.6,10.1
			C585.3,577.9,588,580.6,591.4,580.6z"/>
		<path class="st6" d="M607.9,583.4c0.3-1.1,0.8-3.5,1.1-5.3l2.7-15.2h-2.2c0.5-0.6,1-1.6,1.5-2.3h4.9c-0.3,1.1-0.8,3.4-1.1,5.2
			l-2.1,12.3c-0.4,1.9-0.7,4.3-0.8,5.3H607.9z M612.9,553.9c0-1.5,1.4-2.5,2.5-2.5c1.1,0,1.8,0.9,1.8,2c0,1.5-1.3,2.5-2.6,2.5
			C613.6,555.9,612.9,555,612.9,553.9z"/>
		<path class="st6" d="M630.1,578.1l2.7-15.2h-2.2c0.6-0.8,1.1-1.5,1.5-2.3h4.7l-0.7,3.7c1.6-2.3,4.4-4.1,7.8-4.1
			c5.1,0,7.3,3.6,6.3,9.9l-1.3,8c-0.3,1.7-0.6,3.8-0.7,5.3h-4c0.4-1.5,0.9-3.8,1.1-5.3l1.3-8.1c0.7-4.4-0.8-6.9-4.2-6.9
			c-3.4,0-6.3,2.7-7,6.6l-1.4,8.4c-0.3,1.6-0.7,3.8-0.8,5.3h-4C629.3,581.9,629.9,579.6,630.1,578.1z"/>
		<path class="st6" d="M671.8,582.5c-1.3,0.2-3.8,1.3-6.9,1.3c-6.4,0-9.9-4.3-9.9-10.3c0-7.4,5.5-13.3,12.1-13.3
			c6.2,0,8.3,5,8.3,9.1c0,0.6-0.1,1.3-0.3,2c-3.6,0.8-10.8,1.3-16.6,1.1c0,0.2,0,0.3,0,0.5c0,5.3,2.9,7.8,7.4,7.8
			c2.3,0,4.6-0.5,6.6-1.9L671.8,582.5z M658.8,569.9c4.5,0.2,10.8-0.2,12.9-0.8c0.2-2.9-1.3-6.1-5-6.1
			C663.3,563,659.9,565.7,658.8,569.9z"/>
		<path class="st6" d="M678.3,583.4c0.4-1.7,0.7-3.3,1.1-5.3l2.7-15.3h-2.1c0.5-0.7,1.1-1.8,1.4-2.2h4.4l-1,5c2-3.6,4.7-5.5,7.4-5.5
			c1.1,0,1.6,0.2,2,0.2l-0.8,4.1c-0.5-0.5-1.4-0.8-2.4-0.8c-3.3,0-6.3,4.2-6.8,7.6l-1.3,6.8c-0.4,1.8-0.6,3.4-0.8,5.3H678.3z"/>
		<path class="st6" d="M700.6,560.6c0.1,0.8,0.2,1.8,0.6,3.3l3,13.4l6.9-12.4c1.2-2.1,1.7-3.3,2.1-4.3h4.3c-1.1,1.7-2.5,3.6-3.5,5.3
			l-10.8,18.3h-0.8l-4.5-18.4c-0.4-1.6-0.9-3.6-1.5-5.2H700.6z"/>
		<path class="st6" d="M717.4,583.4c0.3-1.1,0.8-3.5,1.1-5.3l2.7-15.2H719c0.5-0.6,1-1.6,1.5-2.3h4.9c-0.3,1.1-0.8,3.4-1.1,5.2
			l-2.1,12.3c-0.4,1.9-0.7,4.3-0.8,5.3H717.4z M722.4,553.9c0-1.5,1.4-2.5,2.5-2.5c1.1,0,1.8,0.9,1.8,2c0,1.5-1.3,2.5-2.6,2.5
			C723.1,555.9,722.4,555,722.4,553.9z"/>
	</g>
</g>
</svg>
